# xmcd CD database file
#
# Track frame offsets:
#	207
#	13277
#	29005
#	43507
#	57042
#	69935
#	82935
#	98672
#	110097
#	124672
#	140155
#	153857
#	168860
#	181580
#	196327
#	210750
#	226107
#	240602
#	253065
#	266200
#	278212
#	291425
#	305770
#
# Disc length: 4268 seconds
#
# Revision: 0
# Processed by: cddbd v1.4PL0 Copyright (c) Steve Scherf et al.
# Submitted via: CDex 1.50
#
DISCID=4110aa17
DTITLE=Lee Wylie - Hot House Rose
DYEAR=1996
DGENRE=Jazz
TTITLE0=Sweet and Low Down
TTITLE1=Sam and Delilah
TTITLE2=Baby's Awake Now
TTITLE3=A Little Birdie Told Me So
TTITLE4=I've Got Five Dollars
TTITLE5=You Took Advantage of Me
TTITLE6=A Ship Without a Sail
TTITLE7=As Though You Were There
TTITLE8=Glad to Be Unhappy
TTITLE9=Here in My Arms
TTITLE10=Let's Fly Away
TTITLE11=Let's Do It (Let's Fall in Love)
TTITLE12=Hot-House Rose
TTITLE13=Find Me a Primitive Man
TTITLE14=Easy to Love
TTITLE15=Looking at You
TTITLE16=Why Shouldn't I?
TTITLE17=Down With Love
TTITLE18=Stormy Weather
TTITLE19=Between the Devil and the Deep Blue Sea
TTITLE20=I've Got the World on a String
TTITLE21=Let's Fall in Love
TTITLE22=It's Only a Paper Moon
EXTD=YEAR: 1996
EXTT0=
EXTT1=
EXTT2=
EXTT3=
EXTT4=
EXTT5=
EXTT6=
EXTT7=
EXTT8=
EXTT9=
EXTT10=
EXTT11=
EXTT12=
EXTT13=
EXTT14=
EXTT15=
EXTT16=
EXTT17=
EXTT18=
EXTT19=
EXTT20=
EXTT21=
EXTT22=
PLAYORDER=
